<svg width="150" height="40" viewBox="0 0 150 40" fill="none" xmlns="http://www.w3.org/2000/svg">
<rect x="2" y="2" width="146" height="36" rx="14" fill="url(#paint0_linear)" stroke="url(#paint1_linear)" stroke-width="2"/>
<path d="M32.37 11.38L32.22 16.33C32.22 19.05 32.3 21.49 32.46 23.65C32.62 25.79 32.98 28.12 33.54 30.64C33.1 31 32.4 31.18 31.44 31.18C29.58 31.18 28.65 30.37 28.65 28.75C28.65 27.41 28.71 25.36 28.83 22.6C28.97 19.84 29.04 17.68 29.04 16.12C27.96 17.68 26.82 19.61 25.62 21.91C24.44 24.19 23.85 25.59 23.85 26.11C23.85 26.63 23.9 27.03 24 27.31C23.56 27.59 22.97 27.73 22.23 27.73C21.51 27.73 20.9 27.53 20.4 27.13C19.92 26.73 19.51 26.18 19.17 25.48C18.85 24.78 18.27 23.41 17.43 21.37C16.61 19.31 15.86 17.54 15.18 16.06C14.66 19.28 14.4 22.13 14.4 24.61C14.4 27.09 14.48 29.1 14.64 30.64C14 30.88 13.36 31 12.72 31C11.44 31 10.8 30.36 10.8 29.08C10.8 28.1 11.02 26.15 11.46 23.23C11.92 20.29 12.15 17.81 12.15 15.79C12.15 13.77 12.04 11.88 11.82 10.12C12.9 9.84 13.74 9.7 14.34 9.7C15.44 9.7 16.18 10.09 16.56 10.87C17.16 12.13 18.04 14.14 19.2 16.9C20.38 19.64 21.34 21.75 22.08 23.23C22.28 22.81 22.74 21.91 23.46 20.53C24.2 19.13 24.81 17.94 25.29 16.96C25.79 15.96 26.29 14.78 26.79 13.42C27.31 12.04 27.64 10.84 27.78 9.82C28.5 9.62 29.2 9.52 29.88 9.52C30.58 9.52 31.17 9.67 31.65 9.97C32.13 10.27 32.37 10.74 32.37 11.38ZM47.4091 21.04L50.6191 20.8C51.8191 20.8 52.4191 21.41 52.4191 22.63C52.4191 23.33 52.3291 24.42 52.1491 25.9C51.9691 27.38 51.8791 28.58 51.8791 29.5C51.3791 29.58 50.2591 29.88 48.5191 30.4C46.7991 30.92 45.3591 31.18 44.1991 31.18C41.3591 31.18 39.2091 30.3 37.7491 28.54C36.3091 26.78 35.5891 24.38 35.5891 21.34C35.5891 19.18 35.9791 17.2 36.7591 15.4C37.5591 13.6 38.7391 12.14 40.2991 11.02C41.8591 9.9 43.5791 9.34 45.4591 9.34C47.3591 9.34 48.9391 9.78 50.1991 10.66C51.4791 11.54 52.1191 12.73 52.1191 14.23C52.1191 15.07 51.8691 15.78 51.3691 16.36C50.8891 16.92 50.2691 17.2 49.5091 17.2C48.7491 17.2 48.2191 17.11 47.9191 16.93C47.9791 16.57 48.0091 16.21 48.0091 15.85C48.0091 14.79 47.7091 13.93 47.1091 13.27C46.5091 12.59 45.6591 12.25 44.5591 12.25C43.4591 12.25 42.4191 12.62 41.4391 13.36C40.8591 14.18 40.4091 15.3 40.0891 16.72C39.7691 18.14 39.6091 19.52 39.6091 20.86C39.6091 23.02 40.0291 24.8 40.8691 26.2C41.7091 27.58 43.0391 28.27 44.8591 28.27C46.1991 28.27 47.4491 27.88 48.6091 27.1C48.6891 26.32 48.7291 25.2 48.7291 23.74C47.9291 23.98 47.3091 24.1 46.8691 24.1C45.7691 24.1 45.2191 23.52 45.2191 22.36C45.2191 21.86 45.3191 21.33 45.5191 20.77C46.0591 20.95 46.6891 21.04 47.4091 21.04ZM69.1821 16.87C68.6421 19.17 68.3721 21.48 68.3721 23.8C68.3721 26.1 68.6321 28.38 69.1521 30.64C68.4321 30.88 67.6921 31 66.9321 31C66.1721 31 65.6421 30.78 65.3421 30.34C65.0421 29.88 64.8921 29.23 64.8921 28.39C64.8921 27.53 65.0221 26.36 65.2821 24.88C63.8621 27.92 62.4921 29.84 61.1721 30.64C60.5721 31 59.9521 31.18 59.3121 31.18C57.7921 31.18 56.6121 30.62 55.7721 29.5C54.9321 28.36 54.5121 26.95 54.5121 25.27C54.5121 22.71 55.2221 20.47 56.6421 18.55C58.0621 16.61 59.9021 15.64 62.1621 15.64C64.4421 15.64 66.7821 16.05 69.1821 16.87ZM65.2521 18.67C64.1921 18.35 63.2921 18.19 62.5521 18.19C61.0521 18.19 59.9321 18.52 59.1921 19.18C58.5121 20.86 58.1721 22.57 58.1721 24.31C58.1721 25.23 58.3121 26.16 58.5921 27.1C58.8921 28.04 59.3421 28.51 59.9421 28.51C60.6421 28.51 61.5421 27.48 62.6421 25.42C63.7421 23.36 64.6121 21.11 65.2521 18.67ZM94.7398 18.88L94.4398 25.3C94.4398 27.24 94.7198 29.08 95.2798 30.82C94.7198 31.06 94.0798 31.18 93.3598 31.18C91.6598 31.18 90.8098 30.23 90.8098 28.33C90.8098 27.47 90.9198 26.03 91.1398 24.01C91.3598 21.97 91.4698 20.69 91.4698 20.17C91.4698 19.17 91.0598 18.67 90.2398 18.67C89.3398 18.67 88.2598 19.59 86.9998 21.43C85.7598 23.27 85.1398 24.71 85.1398 25.75C85.2398 27.33 85.5198 28.9 85.9798 30.46C85.2198 30.7 84.5798 30.82 84.0598 30.82C82.3598 30.82 81.5098 29.87 81.5098 27.97C81.5098 27.17 81.6198 25.83 81.8398 23.95C82.0598 22.07 82.1698 20.89 82.1698 20.41C82.1698 19.41 81.7198 18.91 80.8198 18.91C80.1998 18.91 79.4898 19.37 78.6898 20.29C77.8898 21.21 77.2098 22.23 76.6498 23.35C76.1098 24.45 75.8198 25.33 75.7798 25.99C75.8798 27.71 76.0798 29.26 76.3798 30.64C75.7398 30.88 75.0698 31 74.3698 31C73.6898 31 73.1298 30.84 72.6898 30.52C72.2698 30.18 72.0598 29.72 72.0598 29.14C72.0598 28.54 72.1498 27.48 72.3298 25.96C72.5098 24.42 72.5998 22.9 72.5998 21.4C72.5998 19.88 72.3698 18.14 71.9098 16.18C72.5498 15.94 73.2298 15.82 73.9498 15.82C74.6698 15.82 75.2498 16.03 75.6898 16.45C76.1498 16.87 76.3798 17.43 76.3798 18.13C76.3798 18.49 76.3098 19.37 76.1698 20.77C76.9098 19.45 77.8498 18.31 78.9898 17.35C80.1298 16.37 81.2698 15.88 82.4098 15.88C84.4298 15.88 85.4398 16.96 85.4398 19.12C85.4398 19.66 85.4098 20.26 85.3498 20.92C86.0898 19.52 87.0398 18.29 88.1998 17.23C89.3798 16.17 90.5498 15.64 91.7098 15.64C93.7298 15.64 94.7398 16.72 94.7398 18.88ZM101.033 24.19C101.033 25.63 101.263 26.77 101.723 27.61C102.183 28.43 102.953 28.84 104.033 28.84C105.113 28.84 105.953 28.48 106.553 27.76C107.173 27.02 107.483 26.13 107.483 25.09C108.163 25.09 108.753 25.26 109.253 25.6C109.753 25.94 110.003 26.41 110.003 27.01C110.003 28.25 109.343 29.29 108.023 30.13C106.703 30.95 105.313 31.36 103.853 31.36C101.573 31.36 99.9234 30.75 98.9034 29.53C97.8834 28.29 97.3734 26.46 97.3734 24.04C97.3734 21.62 98.0534 19.59 99.4134 17.95C100.793 16.29 102.623 15.46 104.903 15.46C106.463 15.46 107.713 15.82 108.653 16.54C109.613 17.24 110.093 18.34 110.093 19.84C110.093 21.32 109.413 22.44 108.053 23.2C106.713 23.94 105.073 24.31 103.133 24.31C102.453 24.31 101.753 24.27 101.033 24.19ZM101.063 21.82C101.663 21.94 102.293 22 102.953 22C104.393 22 105.603 21.73 106.583 21.19C106.703 20.71 106.763 20.33 106.763 20.05C106.763 19.35 106.513 18.82 106.013 18.46C105.513 18.1 104.823 17.92 103.943 17.92C103.083 17.92 102.303 18.2 101.603 18.76C101.243 19.8 101.063 20.82 101.063 21.82ZM117.333 30.64C116.713 30.88 116.053 31 115.353 31C114.653 31 114.083 30.84 113.643 30.52C113.223 30.18 113.013 29.72 113.013 29.14C113.013 28.54 113.103 27.46 113.283 25.9C113.463 24.34 113.553 22.83 113.553 21.37C113.553 19.89 113.323 18.16 112.863 16.18C113.503 15.94 114.133 15.82 114.753 15.82C115.373 15.82 115.903 16.03 116.343 16.45C116.803 16.87 117.033 17.43 117.033 18.13C117.033 18.49 116.973 19.03 116.853 19.75C116.733 20.45 116.663 20.98 116.643 21.34C117.423 19.56 118.343 18.17 119.403 17.17C120.483 16.15 121.553 15.64 122.613 15.64C123.353 15.64 123.943 15.9 124.383 16.42C124.823 16.94 125.043 17.6 125.043 18.4C125.043 19.18 124.843 19.82 124.443 20.32C124.043 20.8 123.543 21.04 122.943 21.04C122.363 21.04 121.893 20.98 121.533 20.86C121.593 20.62 121.623 20.4 121.623 20.2C121.623 19.38 121.333 18.97 120.753 18.97C119.873 18.97 119.043 19.86 118.263 21.64C117.503 23.4 116.993 25.05 116.733 26.59C116.833 28.09 117.033 29.44 117.333 30.64ZM136.354 16.18C136.434 15.78 136.474 15.37 136.474 14.95C136.474 13.01 135.524 12.04 133.624 12.04C132.764 12.04 132.034 12.22 131.434 12.58C130.874 13.24 130.594 14.03 130.594 14.95C130.594 15.55 130.854 16.07 131.374 16.51C131.894 16.93 132.534 17.26 133.294 17.5C134.074 17.74 134.914 18.04 135.814 18.4C136.714 18.76 137.544 19.15 138.304 19.57C139.084 19.97 139.734 20.58 140.254 21.4C140.774 22.2 141.034 23.15 141.034 24.25C141.034 26.35 140.224 28.06 138.604 29.38C137.004 30.7 135.074 31.36 132.814 31.36C130.994 31.36 129.444 30.91 128.164 30.01C126.904 29.09 126.274 27.81 126.274 26.17C126.274 25.33 126.524 24.63 127.024 24.07C127.544 23.49 128.154 23.2 128.854 23.2C129.574 23.2 130.104 23.29 130.444 23.47C130.284 24.07 130.204 24.61 130.204 25.09C130.204 26.17 130.504 27.03 131.104 27.67C131.724 28.29 132.574 28.6 133.654 28.6C134.734 28.6 135.604 28.32 136.264 27.76C136.924 27.2 137.254 26.46 137.254 25.54C137.254 24.6 136.884 23.83 136.144 23.23C135.424 22.63 134.544 22.15 133.504 21.79C132.464 21.43 131.424 21.05 130.384 20.65C129.344 20.25 128.454 19.66 127.714 18.88C126.994 18.08 126.634 17.08 126.634 15.88C126.634 14 127.444 12.44 129.064 11.2C130.704 9.96 132.554 9.34 134.614 9.34C136.134 9.34 137.444 9.65 138.544 10.27C139.664 10.87 140.224 11.79 140.224 13.03C140.224 13.93 139.934 14.7 139.354 15.34C138.774 15.96 138.044 16.27 137.164 16.27C136.924 16.27 136.654 16.24 136.354 16.18Z" fill="url(#paint2_linear)"/>
<defs>
<linearGradient id="paint0_linear" x1="75" y1="1" x2="77.1344" y2="152.361" gradientUnits="userSpaceOnUse">
<stop offset="0.0517903" stop-color="#201C2B"/>
<stop offset="0.396406" stop-color="#716F77" stop-opacity="0.505208"/>
<stop offset="1" stop-color="#C4C4C4" stop-opacity="0"/>
</linearGradient>
<linearGradient id="paint1_linear" x1="77.6525" y1="56.7375" x2="78.7565" y2="-10.3573" gradientUnits="userSpaceOnUse">
<stop stop-color="#7FFA45"/>
<stop offset="1" stop-color="#7FFA45" stop-opacity="0"/>
</linearGradient>
<linearGradient id="paint2_linear" x1="75.5" y1="7.78871" x2="74.0495" y2="56.773" gradientUnits="userSpaceOnUse">
<stop offset="0.0182148" stop-color="#7FFA45"/>
<stop offset="1" stop-color="#7FFA45" stop-opacity="0"/>
</linearGradient>
</defs>
</svg>
